<svg xmlns="http://www.w3.org/2000/svg" width="325.4" height="502" viewBox="0 0 325.4 502">
  <title>placeholder-book</title>
  <g id="Layer_2" data-name="Layer 2">
    <g id="Layer_1-2" data-name="Layer 1">
      <g>
        <rect width="325" height="502" fill="#2e3b48"/>
        <rect x="27.4" width="298" height="502" fill="#3d4c59"/>
        <g>
          <g>
            <path d="M92.3,236.2c2.6,0,2.8-1.3,3.4-3.5l3.6-13a17.5,17.5,0,0,0,.9-3.8c0-1.7-1.6-1.4-3.1-1.4l.3-1.3,5.6.2,3.9-.2c3.7-.1,8.6.9,8.6,5.6s-4.8,5.7-8,5.7h0c3.2.4,6.1,2.1,6.1,5.7,0,5.6-6,7.2-10.5,7.1H92Zm8.9-4.9a17.2,17.2,0,0,0-.4,2.4c0,1.5.9,2.1,2.4,2.1,3.6,0,5.1-3.7,5.1-6.8s-1.9-3.9-4.5-3.9H103Zm2.2-7.8h.8c3.7,0,6.2-1.3,6.2-5.4a3,3,0,0,0-3.3-3.3c-1.5,0-1.4.5-1.8,1.8Z" fill="#fff"/>
            <path d="M115.5,231.5c0-5.1,3.9-9.9,9.2-9.9,3.7,0,6,2.7,6,6.3s-4,9.9-9.1,9.9S115.5,235.2,115.5,231.5Zm5.5-4a24.3,24.3,0,0,0-1.4,6.6c0,1.1.4,2.5,1.8,2.5,3.4,0,5.3-8.9,5.3-11.5a2.1,2.1,0,0,0-1.9-2.3C122.6,222.8,121.6,225.8,121,227.5Z" fill="#fff"/>
            <path d="M132.4,231.5c0-5.1,3.8-9.9,9.1-9.9a5.9,5.9,0,0,1,6.1,6.3c0,5-4,9.9-9.2,9.9S132.4,235.2,132.4,231.5Zm5.5-4a21.1,21.1,0,0,0-1.5,6.6c0,1.1.5,2.5,1.9,2.5,3.3,0,5.2-8.9,5.2-11.5a2.1,2.1,0,0,0-1.9-2.3C139.5,222.8,138.4,225.8,137.9,227.5Z" fill="#fff"/>
            <path d="M153.8,231.6l-1.5,5.8h-4.1l4.5-16.8a27,27,0,0,0,1.2-4.9c0-1.2-1.9-1.2-2.8-1.2l.3-1.1,7.4-.5-3,11.8h.1a6.7,6.7,0,0,1,5.6-3.1c1.6,0,3.1.9,3.1,2.7s-4,4.4-6.1,5.4h0a2.7,2.7,0,0,1,3,2.9c0,.6-.2,1.2-.2,1.8s.2,1.1.8,1.1,1.9-2.4,2.3-3.3l.7.3c-.7,2.4-2.2,5.2-5,5.2a2.8,2.8,0,0,1-2.9-2.9c0-1.2.7-2.7.7-3.6a1.4,1.4,0,0,0-.7-1.2Zm6.9-6.6a1.4,1.4,0,0,0-1.4-1.4c-2.6,0-4.5,4.3-5.1,6.5C156.3,229.5,160.7,227.5,160.7,225Z" fill="#fff"/>
            <path d="M197.3,213.2h1.4l-1.5,7.4h-1.4c-.1-3.2-1.1-6.1-4.9-6.1-6.2,0-9.3,10.4-9.3,15.5,0,3.2,1.4,6.2,5.1,6.2s6.6-3.2,8-6.5h1.5l-2.2,7.9h-1.5v-2.1a11.7,11.7,0,0,1-7,2.3c-5.6,0-9.2-3.8-9.2-9.3,0-7.7,6-15.6,14-15.6a7.8,7.8,0,0,1,5.9,2.2Z" fill="#fff"/>
            <path d="M198.2,231.5c0-5.1,3.9-9.9,9.1-9.9s6.1,2.7,6.1,6.3-4,9.9-9.1,9.9S198.2,235.2,198.2,231.5Zm5.5-4a24.3,24.3,0,0,0-1.4,6.6c0,1.1.4,2.5,1.8,2.5,3.4,0,5.2-8.9,5.2-11.5,0-1.1-.5-2.3-1.8-2.3S204.3,225.8,203.7,227.5Z" fill="#fff"/>
            <path d="M220,237.8c-2.2,0-4.4-1.1-4.4-3.6s3.4-6.6,5.6-8.9h-.1l-1.6.3c-1.1,0-1.9-.4-2.5-.4s-1,1.1-1.4,1.1-.6-.9-.6-1.3,1-3.1,2.6-3.1,2.4,1.7,3.7,1.7,1-.5,1.2-1,.4-1,1-1a.8.8,0,0,1,.8.8c0,1-4,6.1-4,10.3a2.5,2.5,0,0,0,2.3,2.7c2.9,0,5-4.4,4.9-8.2,0-1.5-.3-2.9-.3-3.7a1.7,1.7,0,0,1,1.6-1.9c1.5,0,2,1.4,2,2.7C230.8,229.6,226,237.8,220,237.8Z" fill="#fff"/>
            <path d="M244.3,233.1c-1.7,2.5-4,4.7-7.2,4.7s-5.2-2-5.2-5.4c0-5.5,4-10.8,9.7-10.8,1.9,0,4.4.8,4.4,3.1,0,4.1-6.5,5.5-9.6,6.3a15.2,15.2,0,0,0-.3,2.1,2.4,2.4,0,0,0,2.4,2.7c2,0,3.7-2,4.9-3.4Zm-1.8-8.9c0-.8-.4-1.5-1.3-1.5-2.6,0-4,5.1-4.5,7.1C239.1,229.1,242.5,227.1,242.5,224.2Z" fill="#fff"/>
            <path d="M250.4,237.4h-4.1l1.4-4.6a30.1,30.1,0,0,0,1.6-7.8c0-.4-.1-.9-.5-.9s-2.1,2.4-2.5,3.2l-.8-.4c1.1-2.2,2.8-5.3,5.6-5.3s2.2,1.2,2.2,2.6-.2,2-.3,3h.1c1-2.2,2.5-5.7,5.4-5.7a2.4,2.4,0,0,1,2.6,2.4,2,2,0,0,1-2.2,2.2c-1.6,0-1.5-1.5-2.4-1.5s-4.2,7.1-4.8,8.7Z" fill="#fff"/>
          </g>
          <g>
            <path d="M98.4,261.2h0a7.1,7.1,0,0,1,7.2-7.2,7.2,7.2,0,0,1,5.5,2.2l-1.6,1.8a5.6,5.6,0,0,0-3.9-1.7,4.7,4.7,0,0,0-4.6,4.9h0a4.7,4.7,0,0,0,4.6,5,5.5,5.5,0,0,0,4-1.8l1.6,1.6a7.3,7.3,0,0,1-12.8-4.7Z" fill="#fff"/>
            <path d="M112.8,261.2h0a7.3,7.3,0,0,1,14.6,0h0a7.3,7.3,0,0,1-14.6.1Zm12,0h0a4.7,4.7,0,1,0-9.4,0h0a4.7,4.7,0,1,0,9.4.1Z" fill="#fff"/>
            <path d="M130.4,254.1H133l4.3,6.7,4.2-6.7h2.7v14h-2.5v-10l-4.4,6.6h-.1l-4.4-6.6v10h-2.4Z" fill="#fff"/>
            <path d="M147.9,254.1h2.5v14h-2.5Z" fill="#fff"/>
            <path d="M154.1,254.1h2.3l7.5,9.7v-9.7h2.4v14h-2.1l-7.7-9.9v9.9h-2.4Z" fill="#fff"/>
            <path d="M169.3,261.2h0a7.1,7.1,0,0,1,7.2-7.2,7.9,7.9,0,0,1,5.4,1.9l-1.6,1.9a5.1,5.1,0,0,0-3.9-1.5,4.6,4.6,0,0,0-4.5,4.9h0a4.7,4.7,0,0,0,4.7,5,6.2,6.2,0,0,0,3.4-1v-2.6h-3.6v-2.2h6v5.9a9,9,0,0,1-5.9,2.2A6.9,6.9,0,0,1,169.3,261.2Z" fill="#fff"/>
            <path d="M190.6,266.1l1.5-1.8a6.5,6.5,0,0,0,4.4,1.9c1.6,0,2.5-.7,2.5-1.8h0c0-1-.5-1.6-3.1-2.2s-4.7-1.6-4.7-4.2h0c0-2.4,2-4.1,4.8-4.1a7.8,7.8,0,0,1,5.1,1.8l-1.4,1.9a5.9,5.9,0,0,0-3.8-1.5c-1.4,0-2.2.8-2.2,1.7h0c0,1.1.6,1.6,3.3,2.2s4.5,1.8,4.5,4.1h0c0,2.6-2.1,4.1-5,4.1A8.7,8.7,0,0,1,190.6,266.1Z" fill="#fff"/>
            <path d="M203.8,261.2h0a7.3,7.3,0,0,1,14.6,0h0a7.3,7.3,0,0,1-14.6.1Zm12,0h0a4.8,4.8,0,1,0-9.5,0h0a4.8,4.8,0,0,0,4.8,5A4.7,4.7,0,0,0,215.8,261.2Z" fill="#fff"/>
            <path d="M220.8,261.2h0a7.3,7.3,0,0,1,14.6,0h0a7.3,7.3,0,0,1-14.6.1Zm12,0h0a4.8,4.8,0,1,0-9.5,0h0a4.8,4.8,0,0,0,4.8,5A4.7,4.7,0,0,0,232.8,261.2Z" fill="#fff"/>
            <path d="M238.4,254.1h2.3l7.5,9.7v-9.7h2.4v14h-2.1l-7.7-9.9v9.9h-2.4Z" fill="#fff"/>
          </g>
          <rect x="60.3" y="226.6" width="23.8" height="1.7" fill="#5d6b7f"/>
          <rect x="268.7" y="226.6" width="23.8" height="1.7" fill="#5d6b7f"/>
        </g>
      </g>
    </g>
  </g>
</svg>
